<svg id="svg" version="1.1" xmlns="http://www.w3.org/2000/svg" xmlns:xlink="http://www.w3.org/1999/xlink" width="400" height="611.3432835820895" viewBox="0, 0, 400,611.3432835820895"><g id="svgg"><path id="path0" d="M16.000 90.400 L 16.000 180.800 203.000 180.800 L 390.000 180.800 390.000 90.400 L 390.000 0.000 203.000 0.000 L 16.000 0.000 16.000 90.400 M88.000 108.000 L 88.000 142.800 71.200 142.800 L 54.400 142.800 54.400 108.000 L 54.400 73.200 71.200 73.200 L 88.000 73.200 88.000 108.000 M16.252 215.300 C 16.119 215.795,16.008 281.045,16.005 360.300 L 16.000 504.400 203.000 504.400 L 390.000 504.400 389.995 360.300 C 389.992 281.045,389.881 215.795,389.748 215.300 L 389.507 214.400 203.000 214.400 L 16.493 214.400 16.252 215.300 M88.000 287.600 L 88.000 322.800 71.200 322.800 L 54.400 322.800 54.400 287.600 L 54.400 252.400 71.200 252.400 L 88.000 252.400 88.000 287.600 M16.252 538.900 C 16.119 539.395,16.008 555.865,16.005 575.500 L 16.000 611.200 203.000 611.200 L 390.000 611.200 389.995 575.500 C 389.992 555.865,389.881 539.395,389.748 538.900 L 389.507 538.000 203.000 538.000 L 16.493 538.000 16.252 538.900 " stroke="none" fill="#545454" fill-rule="evenodd"></path><path id="path1" d="" stroke="none" fill="#585454" fill-rule="evenodd"></path><path id="path2" d="" stroke="none" fill="#585454" fill-rule="evenodd"></path><path id="path3" d="" stroke="none" fill="#585454" fill-rule="evenodd"></path><path id="path4" d="" stroke="none" fill="#585454" fill-rule="evenodd"></path></g></svg>