<svg id="svg" version="1.1" xmlns="http://www.w3.org/2000/svg" xmlns:xlink="http://www.w3.org/1999/xlink" width="400" height="24.429624429624432" viewBox="0, 0, 400,24.429624429624432"><g id="svgg"><path id="path0" d="M5.004 0.772 C 4.957 0.894,4.747 0.983,4.507 0.983 C 4.279 0.983,3.997 1.078,3.881 1.193 C 3.765 1.309,3.575 1.404,3.458 1.404 C 3.140 1.404,1.466 3.158,1.096 3.879 C 0.918 4.225,0.689 4.665,0.587 4.855 C 0.072 5.822,0.256 8.691,0.907 9.843 C 1.470 10.838,4.095 13.057,4.710 13.057 C 4.773 13.057,5.082 13.177,5.396 13.322 C 5.710 13.468,6.330 13.754,6.774 13.958 C 7.218 14.162,7.582 14.394,7.582 14.474 C 7.582 14.553,7.638 14.584,7.706 14.541 C 7.775 14.499,7.909 14.558,8.004 14.673 C 8.100 14.788,8.276 14.882,8.396 14.882 C 9.045 14.882,9.967 16.476,9.971 17.602 C 9.974 18.408,9.310 20.358,9.033 20.358 C 8.940 20.358,8.824 20.484,8.775 20.639 C 8.726 20.793,8.621 20.920,8.541 20.920 C 8.461 20.920,8.189 21.018,7.935 21.138 C 6.406 21.864,3.650 20.099,3.650 18.394 C 3.650 18.316,3.595 18.252,3.528 18.252 C 3.407 18.252,3.336 17.833,3.091 15.655 C 2.876 13.745,2.829 13.619,2.342 13.619 C 1.879 13.619,1.683 14.067,1.524 15.490 C 1.445 16.198,1.331 16.840,1.271 16.918 C 1.211 16.995,1.126 17.332,1.084 17.666 C 1.041 18.000,0.906 18.384,0.784 18.520 C 0.662 18.655,0.562 18.872,0.562 19.002 C 0.562 19.132,0.498 19.364,0.421 19.518 C 0.344 19.671,0.218 19.922,0.140 20.075 C 0.063 20.229,-0.000 20.828,-0.000 21.407 L 0.000 22.459 0.486 22.186 C 1.410 21.667,3.623 21.760,4.275 22.344 C 4.349 22.410,4.512 22.464,4.640 22.464 C 4.767 22.464,4.987 22.592,5.129 22.749 C 5.338 22.981,5.494 23.018,5.958 22.949 C 6.272 22.902,7.002 22.814,7.582 22.752 C 10.090 22.486,12.043 20.727,12.732 18.112 C 12.844 17.687,13.000 17.087,13.080 16.778 C 13.251 16.110,13.146 14.073,12.929 13.856 C 12.845 13.772,12.776 13.594,12.776 13.461 C 12.776 13.328,12.618 13.031,12.425 12.802 C 12.232 12.573,12.074 12.333,12.074 12.269 C 12.074 12.089,10.489 10.530,10.306 10.530 C 10.216 10.530,10.068 10.439,9.975 10.328 C 9.837 10.161,8.658 9.515,6.916 8.650 C 6.743 8.564,6.601 8.447,6.600 8.389 C 6.599 8.331,6.481 8.284,6.337 8.284 C 6.193 8.284,5.914 8.157,5.718 8.003 C 5.522 7.848,5.302 7.722,5.229 7.722 C 4.624 7.722,3.370 5.916,3.370 5.044 C 3.370 2.317,7.060 1.358,8.299 3.763 C 8.406 3.972,8.529 4.173,8.572 4.212 C 8.943 4.545,9.287 5.678,9.362 6.809 C 9.512 9.095,10.688 9.075,10.972 6.781 C 11.046 6.185,11.158 5.631,11.221 5.551 C 11.284 5.471,11.381 5.153,11.437 4.844 C 11.529 4.332,11.996 3.161,12.389 2.457 C 12.863 1.606,12.877 1.550,12.721 1.054 C 12.580 0.601,12.074 0.326,12.074 0.702 C 12.074 1.362,9.734 1.826,9.092 1.294 C 8.973 1.195,8.552 1.075,8.158 1.029 C 7.689 0.973,7.441 0.878,7.441 0.753 C 7.441 0.461,5.116 0.480,5.004 0.772 M19.609 0.936 C 19.301 1.244,19.523 2.264,19.930 2.405 C 20.636 2.651,20.690 3.077,20.575 7.496 C 20.496 10.521,20.426 11.498,20.275 11.715 C 20.166 11.870,20.077 12.104,20.077 12.235 C 20.077 12.367,19.935 12.653,19.761 12.871 C 18.581 14.354,18.353 15.960,19.331 15.899 C 19.654 15.879,19.950 15.913,19.989 15.976 C 20.099 16.154,19.825 20.450,19.686 20.735 C 19.617 20.875,19.471 21.179,19.360 21.411 C 19.232 21.678,18.996 21.880,18.715 21.964 C 18.305 22.085,18.119 22.361,18.114 22.853 C 18.112 22.993,18.770 23.023,21.165 22.993 L 24.219 22.955 24.262 22.517 C 24.294 22.182,24.241 22.063,24.035 22.009 C 23.876 21.967,23.732 21.772,23.686 21.534 C 23.643 21.312,23.535 20.829,23.445 20.462 C 23.299 19.860,23.301 19.026,23.454 15.686 C 23.470 15.318,23.536 14.984,23.600 14.945 C 23.663 14.906,23.687 14.796,23.653 14.702 C 23.559 14.447,23.792 14.160,24.020 14.249 C 24.300 14.359,24.844 15.233,24.944 15.735 C 25.054 16.283,25.250 16.202,25.667 15.435 C 26.196 14.460,26.391 14.180,26.539 14.180 C 26.706 14.180,26.700 16.285,26.527 18.041 C 26.347 19.875,26.315 20.124,26.226 20.358 C 26.182 20.474,26.076 20.830,25.989 21.149 C 25.903 21.468,25.738 21.807,25.622 21.903 C 25.507 21.999,25.412 22.291,25.412 22.551 L 25.412 23.026 28.220 23.026 L 31.028 23.026 31.028 22.534 C 31.028 22.136,30.975 22.043,30.748 22.043 C 29.889 22.043,29.706 20.033,30.050 14.391 C 30.121 13.233,30.276 10.674,30.395 8.705 C 30.659 4.334,30.625 4.731,30.749 4.563 C 30.806 4.486,30.897 4.118,30.951 3.746 C 31.056 3.015,31.424 2.527,31.868 2.527 C 32.058 2.527,32.172 2.405,32.228 2.141 C 32.384 1.398,32.401 1.332,32.502 1.088 C 32.596 0.859,32.403 0.842,29.557 0.842 L 26.511 0.842 26.581 1.650 C 26.619 2.094,26.730 2.773,26.827 3.159 C 27.033 3.979,27.062 8.000,26.872 9.477 C 26.736 10.540,26.441 10.729,25.812 10.159 C 25.676 10.036,25.280 9.903,24.933 9.864 C 23.882 9.746,23.835 9.617,24.011 7.355 C 24.264 4.106,24.444 3.328,25.155 2.403 C 25.314 2.196,25.412 1.834,25.412 1.455 L 25.412 0.842 22.558 0.842 C 20.987 0.842,19.661 0.885,19.609 0.936 M44.006 0.998 C 43.953 1.084,43.586 1.308,43.190 1.496 C 42.091 2.018,41.826 2.189,41.268 2.730 C 40.985 3.004,40.684 3.229,40.599 3.229 C 40.515 3.229,40.370 3.371,40.277 3.545 C 40.185 3.719,39.875 4.145,39.589 4.493 C 38.407 5.929,37.993 7.695,38.327 9.886 C 38.541 11.293,39.701 12.938,41.243 14.020 L 41.699 14.340 41.693 16.120 C 41.689 17.100,41.621 18.185,41.541 18.533 C 41.461 18.880,41.371 19.354,41.341 19.586 C 41.142 21.140,40.808 21.622,39.927 21.622 C 39.246 21.622,38.981 21.912,39.058 22.576 L 39.101 22.955 45.193 22.992 C 49.144 23.016,51.344 22.979,51.455 22.887 C 51.797 22.603,53.277 22.549,53.670 22.806 C 54.844 23.576,55.524 22.832,54.915 21.442 C 54.411 20.292,54.335 20.060,54.335 19.677 C 54.335 19.465,54.281 19.231,54.214 19.158 C 54.078 19.007,53.773 16.909,53.773 16.127 C 53.773 15.383,53.287 15.272,52.755 15.894 C 52.543 16.143,52.369 16.413,52.369 16.495 C 52.369 16.644,51.834 17.742,51.311 18.669 C 50.840 19.502,49.429 20.895,48.877 21.073 C 48.597 21.163,48.305 21.287,48.227 21.347 C 47.989 21.534,46.098 21.671,45.998 21.508 C 45.948 21.428,45.949 20.099,46.001 18.555 C 46.108 15.356,45.983 15.623,47.525 15.293 C 47.989 15.194,48.492 15.030,48.645 14.928 C 48.797 14.826,49.030 14.742,49.163 14.742 C 49.295 14.742,49.696 14.489,50.053 14.180 C 50.813 13.522,50.946 13.501,51.386 13.970 C 51.792 14.402,51.879 14.404,52.364 13.996 L 52.751 13.670 52.384 13.249 C 51.736 12.502,51.320 11.990,51.176 11.762 C 51.099 11.640,50.641 11.060,50.158 10.475 C 49.675 9.889,49.280 9.357,49.280 9.292 C 49.280 9.228,49.119 9.023,48.922 8.838 C 48.526 8.466,48.304 8.605,48.300 9.227 C 48.296 9.762,47.035 11.506,46.648 11.511 C 46.294 11.515,46.521 5.818,46.910 4.914 C 47.265 4.090,47.422 3.864,47.609 3.912 C 47.717 3.941,47.979 3.961,48.190 3.957 C 48.401 3.953,48.610 4.009,48.654 4.081 C 48.699 4.153,48.827 4.212,48.939 4.212 C 49.170 4.212,50.412 5.043,51.012 5.599 C 51.572 6.117,52.183 7.054,52.296 7.566 C 52.348 7.804,52.449 8.036,52.520 8.080 C 52.592 8.124,52.650 8.273,52.650 8.411 C 52.650 8.548,52.778 8.777,52.935 8.919 C 53.426 9.363,53.651 8.949,53.830 7.275 C 53.914 6.478,54.023 5.763,54.071 5.686 C 54.118 5.609,54.202 5.298,54.257 4.996 C 54.383 4.296,55.021 2.700,55.348 2.263 C 55.848 1.594,55.460 0.683,54.894 1.195 C 54.422 1.621,51.470 1.583,50.852 1.142 C 50.364 0.795,44.211 0.666,44.006 0.998 M62.338 1.165 C 62.338 1.569,62.584 1.825,62.973 1.825 C 64.017 1.825,64.212 3.637,63.881 10.249 C 63.790 12.064,63.659 14.844,63.589 16.427 C 63.392 20.889,63.216 21.622,62.339 21.622 C 61.848 21.622,61.651 21.936,61.767 22.534 L 61.849 22.955 66.434 22.992 C 70.549 23.026,71.042 23.006,71.252 22.796 C 71.451 22.597,71.699 22.575,72.946 22.646 C 74.589 22.739,75.092 22.561,74.629 22.050 C 74.510 21.918,74.412 21.677,74.412 21.514 C 74.412 21.350,74.346 21.176,74.264 21.126 C 74.183 21.075,74.141 20.961,74.171 20.872 C 74.202 20.782,74.142 20.506,74.038 20.257 C 73.935 20.009,73.850 19.595,73.850 19.338 C 73.850 19.080,73.794 18.810,73.724 18.736 C 73.578 18.582,73.289 15.763,73.289 14.494 C 73.289 13.108,72.422 12.940,72.226 14.288 C 72.173 14.654,72.091 15.016,72.042 15.093 C 71.994 15.170,71.850 15.676,71.722 16.216 C 71.290 18.034,71.198 18.323,70.804 19.104 C 70.077 20.542,68.936 21.576,68.094 21.559 L 67.743 21.551 67.757 18.182 C 67.810 5.721,68.197 2.044,69.469 1.939 C 69.960 1.898,69.992 1.866,70.033 1.369 L 70.077 0.842 66.207 0.842 L 62.338 0.842 62.338 1.165 M182.520 1.112 C 182.520 1.583,182.682 1.825,182.995 1.825 C 183.452 1.825,183.924 2.217,183.924 2.597 C 183.924 2.781,183.987 2.971,184.065 3.019 C 184.244 3.130,184.238 7.809,184.056 9.898 C 183.982 10.748,183.862 13.212,183.789 15.374 C 183.611 20.650,183.390 21.622,182.368 21.622 C 181.918 21.622,181.804 21.849,181.914 22.526 L 181.995 23.026 186.593 23.026 C 190.680 23.026,191.212 23.000,191.381 22.796 C 191.544 22.600,191.794 22.577,193.048 22.638 C 194.872 22.727,195.385 22.500,194.680 21.915 C 194.573 21.826,194.440 21.456,194.386 21.092 C 194.331 20.729,194.205 20.273,194.106 20.079 C 194.007 19.885,193.845 18.936,193.747 17.971 C 193.648 17.006,193.514 16.156,193.449 16.083 C 193.384 16.009,193.331 15.433,193.331 14.801 C 193.331 12.534,192.463 12.971,192.056 15.444 C 191.960 16.023,191.832 16.563,191.770 16.644 C 191.709 16.725,191.614 17.073,191.559 17.417 C 191.450 18.102,190.512 20.023,190.122 20.358 C 189.988 20.474,189.835 20.679,189.783 20.814 C 189.732 20.949,189.593 21.060,189.474 21.060 C 189.356 21.060,189.259 21.107,189.258 21.165 C 189.255 21.494,188.155 21.724,187.883 21.453 C 187.672 21.241,187.643 15.432,187.852 15.222 C 187.933 15.142,188.040 12.807,188.112 9.583 C 188.186 6.288,188.292 4.008,188.377 3.900 C 188.455 3.802,188.556 3.477,188.602 3.179 C 188.722 2.398,189.048 1.966,189.515 1.966 C 190.011 1.966,190.242 1.734,190.242 1.236 L 190.242 0.842 186.381 0.842 C 182.669 0.842,182.520 0.853,182.520 1.112 M245.841 0.983 C 245.725 1.058,245.464 1.120,245.261 1.121 C 245.058 1.122,244.814 1.218,244.717 1.334 C 244.621 1.450,244.455 1.544,244.348 1.544 C 244.241 1.544,244.045 1.671,243.913 1.825 C 243.780 1.980,243.592 2.106,243.493 2.106 C 243.394 2.106,243.313 2.201,243.313 2.317 C 243.313 2.432,243.234 2.530,243.138 2.533 C 242.894 2.540,241.200 5.054,241.439 5.054 C 241.485 5.054,241.448 5.144,241.357 5.254 C 241.265 5.364,241.153 6.029,241.108 6.732 C 240.958 9.045,241.882 10.956,243.716 12.120 C 244.074 12.347,244.527 12.643,244.723 12.777 C 245.104 13.039,246.624 13.759,246.793 13.759 C 246.950 13.758,248.147 14.377,248.244 14.509 C 248.334 14.633,248.805 14.920,249.280 15.142 C 249.635 15.307,250.474 16.106,250.474 16.278 C 250.474 16.350,250.547 16.586,250.637 16.804 C 250.821 17.248,250.887 18.388,250.742 18.603 C 250.689 18.680,250.600 18.964,250.542 19.233 C 250.036 21.596,247.139 22.313,245.529 20.475 C 244.988 19.857,244.296 18.401,244.296 17.880 C 244.296 17.652,244.227 17.397,244.143 17.312 C 244.058 17.228,243.935 16.483,243.869 15.657 C 243.741 14.058,243.617 13.759,243.082 13.759 C 242.819 13.759,242.726 13.853,242.660 14.183 C 242.613 14.417,242.520 14.641,242.453 14.683 C 242.386 14.725,242.331 15.018,242.331 15.336 C 242.331 16.484,242.033 17.879,241.612 18.706 C 241.544 18.841,241.488 19.070,241.488 19.216 C 241.488 19.362,241.393 19.560,241.278 19.656 C 241.162 19.752,241.067 19.926,241.067 20.043 C 241.067 20.159,240.925 20.482,240.751 20.761 C 239.899 22.125,239.767 22.438,239.869 22.845 C 239.984 23.306,240.293 23.244,241.051 22.604 C 241.791 21.980,243.568 21.774,244.230 22.236 C 244.382 22.342,244.770 22.473,245.091 22.527 C 245.412 22.581,245.788 22.750,245.927 22.903 C 246.186 23.189,248.903 23.172,249.280 22.882 C 249.358 22.822,249.686 22.695,250.010 22.599 C 251.292 22.218,252.801 20.465,253.570 18.463 C 254.217 16.780,254.064 14.042,253.268 13.030 C 253.044 12.745,252.861 12.459,252.861 12.394 C 252.861 12.245,251.393 10.811,251.240 10.811 C 251.178 10.811,251.012 10.706,250.870 10.578 C 250.581 10.316,250.395 10.207,249.000 9.480 C 248.459 9.199,247.827 8.868,247.596 8.744 C 247.364 8.620,247.048 8.455,246.894 8.376 C 246.084 7.966,245.887 7.837,245.307 7.345 C 243.846 6.104,243.921 3.929,245.461 2.887 C 247.434 1.553,249.966 3.773,250.158 7.005 C 250.236 8.321,250.341 8.564,250.832 8.564 C 251.316 8.564,251.737 7.939,251.737 7.220 C 251.737 6.887,251.792 6.581,251.859 6.540 C 251.926 6.499,252.025 6.135,252.078 5.732 C 252.132 5.329,252.330 4.662,252.518 4.250 C 252.707 3.839,252.861 3.434,252.861 3.351 C 252.861 3.268,253.056 2.910,253.295 2.556 C 253.987 1.531,253.435 0.253,252.703 1.184 C 252.318 1.673,251.179 1.797,250.015 1.478 C 249.534 1.345,248.935 1.205,248.684 1.165 C 248.433 1.125,248.227 1.036,248.227 0.967 C 248.227 0.798,246.105 0.812,245.841 0.983 M371.977 0.981 C 371.901 1.058,371.525 1.161,371.142 1.210 C 370.311 1.317,369.651 1.686,369.228 2.281 C 368.689 3.038,367.960 4.535,367.757 5.299 C 367.650 5.705,367.464 6.400,367.344 6.844 C 367.224 7.288,367.060 7.930,366.980 8.269 C 366.782 9.106,366.891 15.415,367.110 15.795 C 367.199 15.949,367.311 16.374,367.358 16.739 C 367.405 17.104,367.503 17.440,367.576 17.485 C 367.648 17.530,367.708 17.695,367.708 17.853 C 367.708 18.010,367.792 18.306,367.894 18.511 C 367.997 18.716,368.186 19.094,368.315 19.351 C 368.445 19.609,368.550 19.898,368.550 19.994 C 368.550 20.090,368.834 20.543,369.181 21.000 C 370.569 22.829,370.552 22.821,373.588 22.978 C 374.427 23.021,374.959 22.991,375.055 22.895 C 375.138 22.813,375.468 22.745,375.788 22.745 C 376.463 22.745,377.817 21.495,377.817 20.873 C 377.817 20.698,377.895 20.476,377.991 20.380 C 378.220 20.151,378.236 16.977,378.011 16.694 C 377.924 16.586,377.813 16.270,377.763 15.993 C 377.668 15.469,377.093 14.792,376.863 14.935 C 376.790 14.980,376.686 15.522,376.632 16.140 C 376.578 16.759,376.475 17.301,376.403 17.345 C 376.331 17.390,376.272 17.612,376.272 17.839 C 376.272 18.149,376.207 18.252,376.009 18.252 C 375.864 18.252,375.667 18.347,375.570 18.463 C 375.323 18.761,373.291 18.761,373.043 18.463 C 372.947 18.347,372.793 18.252,372.700 18.252 C 372.516 18.252,370.709 16.066,370.754 15.898 C 370.770 15.842,370.628 15.531,370.439 15.208 C 370.249 14.886,370.095 14.409,370.095 14.148 C 370.095 13.888,370.036 13.615,369.965 13.542 C 369.510 13.073,369.239 7.798,369.629 7.006 C 369.720 6.821,369.872 6.416,369.966 6.107 C 370.060 5.799,370.234 5.388,370.351 5.195 C 371.468 3.361,371.752 3.089,372.550 3.089 C 372.941 3.089,373.745 3.722,373.745 4.030 C 373.745 4.148,373.863 4.474,374.007 4.754 C 374.420 5.562,374.562 6.131,374.797 7.932 C 375.026 9.693,375.281 10.250,375.772 10.061 C 376.040 9.959,376.059 9.903,376.254 8.635 C 376.789 5.144,376.899 4.726,377.799 2.738 C 378.262 1.715,378.226 0.941,377.711 0.868 C 377.520 0.841,377.396 0.896,377.396 1.009 C 377.396 1.623,375.218 1.924,374.406 1.422 C 374.140 1.258,373.760 1.123,373.561 1.123 C 373.363 1.123,373.161 1.060,373.113 0.983 C 373.001 0.801,372.159 0.800,371.977 0.981 M86.486 1.193 C 86.390 1.309,86.208 1.404,86.081 1.404 C 85.954 1.404,85.630 1.522,85.361 1.666 C 85.092 1.810,84.667 1.973,84.416 2.028 C 84.165 2.083,83.959 2.186,83.959 2.258 C 83.959 2.329,83.878 2.387,83.779 2.387 C 83.550 2.387,82.274 3.671,82.274 3.901 C 82.274 3.995,82.213 4.072,82.138 4.072 C 81.973 4.072,81.011 5.548,81.011 5.801 C 81.011 5.900,80.932 6.060,80.835 6.156 C 80.196 6.795,80.796 11.945,81.564 12.420 C 81.646 12.471,81.713 12.635,81.713 12.785 C 81.713 12.935,81.800 13.057,81.907 13.057 C 82.014 13.057,82.134 13.183,82.175 13.337 C 82.215 13.491,82.364 13.661,82.507 13.714 C 83.372 14.036,83.538 14.316,83.531 15.435 C 83.520 17.103,83.305 19.499,83.150 19.692 C 83.072 19.788,82.966 20.119,82.913 20.428 C 82.801 21.095,82.408 21.622,82.023 21.622 C 81.782 21.622,81.432 22.414,81.432 22.960 C 81.432 23.046,87.694 22.936,89.014 22.827 C 90.199 22.729,92.163 22.096,92.773 21.616 C 92.966 21.465,93.178 21.341,93.246 21.341 C 93.545 21.341,96.168 18.746,96.172 18.446 C 96.173 18.360,96.300 18.129,96.455 17.933 C 96.609 17.737,96.736 17.496,96.736 17.399 C 96.736 17.301,96.826 17.121,96.937 16.999 C 98.184 15.621,98.283 9.061,97.093 6.741 C 96.993 6.547,96.806 6.167,96.676 5.897 C 96.176 4.854,95.974 4.582,94.743 3.294 C 94.019 2.537,93.360 1.966,93.209 1.966 C 93.064 1.966,92.945 1.913,92.945 1.849 C 92.945 1.784,92.866 1.725,92.769 1.717 C 92.287 1.678,91.317 1.336,91.218 1.171 C 91.045 0.880,86.729 0.901,86.486 1.193 M127.982 1.586 C 127.630 1.918,127.343 2.294,127.343 2.420 C 127.343 2.547,127.282 2.689,127.207 2.735 C 126.389 3.241,125.964 7.062,126.584 8.340 C 126.692 8.564,126.781 8.822,126.781 8.912 C 126.781 9.268,127.829 10.279,128.503 10.573 L 129.206 10.880 129.105 14.096 C 129.050 15.865,128.942 17.476,128.866 17.676 C 128.790 17.876,128.643 18.451,128.539 18.953 C 128.196 20.619,127.732 21.481,127.181 21.481 C 126.967 21.481,126.922 21.593,126.922 22.113 L 126.922 22.745 129.457 22.745 L 131.992 22.745 131.949 22.086 C 131.909 21.474,131.874 21.419,131.450 21.310 C 131.038 21.204,130.924 21.066,130.978 20.740 C 130.988 20.680,130.901 20.446,130.784 20.220 C 130.668 19.995,130.572 19.590,130.572 19.320 C 130.572 19.051,130.518 18.797,130.453 18.756 C 130.185 18.591,130.259 10.921,130.533 10.390 C 131.213 9.074,131.570 8.966,131.838 9.996 C 131.924 10.328,132.117 10.934,132.266 11.343 C 132.415 11.751,132.538 12.237,132.538 12.422 C 132.538 12.608,132.590 12.792,132.654 12.832 C 132.719 12.872,132.852 13.365,132.951 13.928 C 133.050 14.492,133.212 15.142,133.310 15.374 C 133.408 15.605,133.570 16.143,133.671 16.567 C 133.772 16.992,133.898 17.403,133.952 17.480 C 134.006 17.557,134.095 17.841,134.150 18.112 C 134.266 18.678,134.534 19.584,135.010 21.013 C 135.195 21.567,135.346 22.183,135.346 22.382 C 135.346 22.611,135.424 22.745,135.556 22.745 C 135.672 22.745,135.767 22.682,135.767 22.604 C 135.767 22.527,135.917 22.464,136.101 22.464 C 136.563 22.464,136.697 22.252,136.897 21.200 C 136.993 20.698,137.117 20.225,137.174 20.147 C 137.231 20.070,137.325 19.849,137.385 19.656 C 137.444 19.463,137.641 19.110,137.823 18.871 C 138.005 18.632,138.155 18.379,138.156 18.309 C 138.157 18.239,138.315 18.033,138.507 17.851 C 138.967 17.415,138.948 17.309,138.364 17.030 C 138.094 16.901,137.873 16.694,137.873 16.569 C 137.873 16.445,137.806 16.276,137.724 16.194 C 137.504 15.974,137.865 6.811,138.144 5.546 C 138.592 3.512,139.045 2.484,139.524 2.413 C 139.952 2.350,140.145 2.048,140.094 1.518 L 140.049 1.053 137.424 1.015 L 134.798 0.977 134.701 1.494 C 134.594 2.063,134.909 2.459,135.373 2.339 C 136.300 2.098,136.801 4.961,136.567 9.161 C 136.482 10.686,136.364 11.934,136.304 11.934 C 136.111 11.934,135.797 11.177,135.691 10.458 C 135.634 10.073,135.502 9.633,135.397 9.481 C 135.291 9.329,135.205 9.117,135.205 9.011 C 135.205 8.904,135.116 8.618,135.007 8.375 C 134.898 8.132,134.736 7.585,134.646 7.160 C 134.556 6.736,134.429 6.262,134.362 6.107 C 134.295 5.953,134.038 5.175,133.791 4.379 C 133.369 3.022,133.283 2.869,132.420 1.957 L 131.499 0.983 130.060 0.983 L 128.621 0.983 127.982 1.586 M292.668 1.232 C 290.451 1.266,290.127 1.300,290.004 1.513 C 289.695 2.046,289.916 2.527,290.471 2.527 C 291.574 2.527,291.999 4.661,291.824 9.319 C 291.705 12.501,291.478 12.833,290.904 10.670 C 290.688 9.857,290.503 9.305,290.261 8.754 C 290.154 8.510,290.067 8.177,290.067 8.012 C 290.067 7.848,289.982 7.510,289.878 7.261 C 289.775 7.013,289.608 6.462,289.509 6.037 C 289.409 5.612,289.283 5.202,289.228 5.125 C 289.173 5.047,289.042 4.671,288.939 4.287 C 288.597 3.028,288.190 2.459,286.865 1.387 C 286.754 1.297,286.085 1.258,285.149 1.286 L 283.615 1.334 283.055 1.895 C 282.746 2.204,282.492 2.534,282.490 2.628 C 282.487 2.722,282.349 3.038,282.184 3.330 C 280.767 5.827,281.559 9.845,283.643 10.725 C 284.463 11.072,284.488 11.149,284.406 13.139 C 284.181 18.663,283.508 21.622,282.477 21.622 C 282.196 21.622,282.011 22.874,282.277 22.976 C 282.359 23.007,283.497 23.015,284.807 22.994 L 287.188 22.955 287.188 22.255 C 287.188 21.592,287.166 21.550,286.782 21.483 C 286.361 21.408,286.290 21.319,285.999 20.498 C 285.651 19.519,285.591 18.676,285.588 14.812 L 285.586 10.881 285.984 10.185 C 286.203 9.802,286.453 9.465,286.540 9.436 C 286.699 9.383,287.190 10.383,287.343 11.070 C 287.388 11.275,287.507 11.632,287.607 11.864 C 287.706 12.095,287.833 12.600,287.888 12.985 C 287.943 13.370,288.077 13.857,288.185 14.066 C 288.293 14.276,288.382 14.656,288.383 14.911 C 288.383 15.165,288.482 15.563,288.603 15.795 C 288.812 16.196,288.930 16.598,289.446 18.673 C 289.571 19.175,289.709 19.681,289.752 19.796 C 289.796 19.912,289.838 20.039,289.846 20.077 C 289.854 20.116,289.901 20.211,289.951 20.289 C 290.001 20.367,290.086 20.668,290.140 20.957 C 290.194 21.247,290.296 21.520,290.366 21.563 C 290.435 21.606,290.459 21.695,290.418 21.762 C 290.377 21.829,290.407 21.923,290.486 21.971 C 290.564 22.020,290.628 22.277,290.628 22.543 C 290.628 23.034,290.852 23.198,290.999 22.815 C 291.043 22.699,291.233 22.604,291.420 22.604 C 291.621 22.604,291.793 22.504,291.839 22.359 C 291.882 22.224,291.972 21.987,292.040 21.832 C 292.107 21.678,292.236 21.157,292.326 20.674 C 292.416 20.191,292.545 19.796,292.612 19.796 C 292.679 19.796,292.734 19.723,292.734 19.634 C 292.734 19.545,292.892 19.265,293.085 19.012 C 293.278 18.759,293.436 18.486,293.436 18.407 C 293.436 18.327,293.563 18.194,293.717 18.112 C 294.144 17.883,294.058 17.473,293.515 17.152 C 293.147 16.935,293.007 16.740,292.931 16.333 C 292.841 15.851,293.058 9.337,293.228 7.441 C 293.372 5.829,293.622 4.212,293.726 4.212 C 293.786 4.212,293.874 4.036,293.921 3.820 C 294.062 3.180,294.527 2.527,294.843 2.527 C 295.160 2.527,295.237 2.396,295.314 1.717 C 295.379 1.142,295.625 1.187,292.668 1.232 M385.773 1.217 C 385.457 1.532,385.708 2.497,386.171 2.752 C 387.282 3.362,386.954 11.534,385.748 13.310 C 385.556 13.593,385.398 13.876,385.398 13.940 C 385.398 14.003,385.268 14.341,385.109 14.690 C 384.654 15.690,384.766 16.085,385.494 16.039 C 385.818 16.019,386.114 16.054,386.152 16.116 C 386.274 16.314,385.981 20.609,385.827 20.875 C 385.746 21.015,385.617 21.305,385.541 21.519 C 385.448 21.781,385.275 21.934,385.013 21.987 C 384.668 22.056,384.275 22.549,384.275 22.913 C 384.275 22.975,385.602 23.026,387.224 23.026 L 390.172 23.026 390.172 22.609 C 390.172 22.345,390.075 22.141,389.906 22.051 C 389.272 21.711,389.117 15.039,389.729 14.427 C 389.910 14.246,390.716 15.277,390.818 15.819 C 390.926 16.399,391.306 16.217,391.571 15.458 C 392.327 13.287,392.593 14.373,392.272 18.325 C 392.124 20.148,391.734 21.737,391.356 22.050 C 391.245 22.142,391.155 22.399,391.155 22.622 L 391.155 23.026 393.822 23.026 L 396.490 23.026 396.490 22.534 C 396.490 22.142,396.435 22.043,396.219 22.043 C 395.585 22.043,395.507 21.746,395.508 19.330 C 395.509 17.220,395.848 8.680,395.994 7.090 C 396.291 3.856,396.619 2.827,397.356 2.812 C 397.504 2.810,397.621 2.651,397.672 2.387 C 397.717 2.155,397.790 1.776,397.835 1.544 L 397.916 1.123 395.085 1.123 L 392.253 1.123 392.329 1.931 C 392.439 3.110,392.578 3.982,392.680 4.142 C 392.803 4.333,392.768 8.406,392.633 9.593 C 392.504 10.730,392.405 10.793,391.474 10.325 C 391.083 10.129,390.640 9.968,390.489 9.968 C 390.089 9.968,389.789 9.542,389.846 9.056 C 389.874 8.824,389.928 7.813,389.967 6.809 C 390.033 5.097,390.209 4.036,390.477 3.728 C 390.541 3.654,390.593 3.506,390.593 3.399 C 390.593 3.291,390.720 3.043,390.874 2.846 C 391.067 2.600,391.155 2.277,391.155 1.806 L 391.155 1.123 388.511 1.123 C 387.056 1.123,385.824 1.165,385.773 1.217 M109.703 1.447 C 108.579 1.708,106.780 3.462,106.292 4.774 C 106.192 5.044,106.022 5.465,105.914 5.710 C 105.807 5.955,105.680 6.350,105.632 6.588 C 105.585 6.825,105.499 7.020,105.442 7.020 C 105.385 7.020,105.257 7.415,105.158 7.898 C 105.059 8.380,104.908 8.864,104.823 8.972 C 104.605 9.250,104.610 15.749,104.828 16.019 C 104.916 16.127,105.032 16.501,105.086 16.848 C 105.281 18.099,107.232 21.622,107.729 21.622 C 107.806 21.622,108.138 21.843,108.468 22.113 C 108.798 22.383,109.177 22.604,109.310 22.604 C 109.443 22.604,109.625 22.705,109.715 22.829 C 109.896 23.076,113.022 22.980,113.022 22.727 C 113.022 22.659,113.105 22.604,113.206 22.604 C 113.562 22.604,115.570 20.941,115.965 20.319 C 116.185 19.973,116.435 19.646,116.521 19.593 C 116.705 19.479,117.375 18.196,117.375 17.956 C 117.375 17.866,117.495 17.532,117.643 17.214 C 118.483 15.405,118.568 14.880,118.568 11.507 C 118.568 8.781,118.535 8.292,118.332 7.982 C 118.203 7.784,118.054 7.392,118.001 7.111 C 117.948 6.829,117.849 6.599,117.780 6.599 C 117.711 6.599,117.669 6.551,117.687 6.494 C 117.906 5.760,115.439 3.055,114.118 2.581 C 113.565 2.383,113.362 2.236,113.330 2.010 C 113.242 1.395,111.256 1.087,109.703 1.447 M266.096 1.447 C 265.692 1.539,265.178 1.776,264.953 1.974 C 264.729 2.172,264.380 2.442,264.179 2.574 C 263.977 2.706,263.812 2.881,263.812 2.963 C 263.812 3.045,263.598 3.375,263.337 3.697 C 262.877 4.263,262.267 5.437,262.267 5.756 C 262.267 5.842,262.148 6.177,262.003 6.501 C 261.857 6.825,261.692 7.311,261.635 7.582 C 261.579 7.852,261.484 8.136,261.423 8.213 C 260.860 8.935,260.860 15.473,261.422 16.778 C 261.489 16.932,261.581 17.248,261.627 17.480 C 261.898 18.845,264.048 22.043,264.696 22.043 C 264.793 22.043,264.981 22.169,265.113 22.324 C 265.245 22.478,265.477 22.604,265.629 22.604 C 265.780 22.604,265.962 22.709,266.033 22.836 C 266.216 23.163,269.152 23.041,269.501 22.692 C 269.626 22.567,269.793 22.464,269.871 22.464 C 270.045 22.464,272.095 20.782,272.095 20.640 C 272.095 20.584,272.337 20.261,272.632 19.921 C 273.152 19.324,273.651 18.410,273.852 17.690 C 273.906 17.497,274.029 17.213,274.125 17.059 C 274.221 16.904,274.346 16.525,274.403 16.216 C 274.459 15.907,274.611 15.433,274.740 15.163 C 275.095 14.416,275.087 8.689,274.729 8.073 C 274.594 7.841,274.484 7.564,274.483 7.457 C 274.482 7.276,274.046 6.241,273.766 5.756 C 273.699 5.641,273.558 5.355,273.452 5.122 C 273.120 4.389,271.389 2.917,270.427 2.551 C 269.711 2.278,269.568 2.169,269.568 1.892 C 269.568 1.710,269.521 1.532,269.463 1.496 C 269.192 1.329,266.769 1.294,266.096 1.447 M348.965 1.397 C 348.606 1.544,347.912 2.324,347.912 2.579 C 347.912 2.686,347.817 2.852,347.701 2.948 C 347.585 3.045,347.490 3.212,347.490 3.322 C 347.490 3.431,347.401 3.660,347.291 3.831 C 346.048 5.775,347.047 9.845,348.986 10.732 L 349.737 11.076 349.732 12.523 C 349.725 14.428,349.512 17.459,349.328 18.252 C 348.986 19.727,348.905 20.033,348.725 20.517 C 348.487 21.155,348.225 21.476,347.812 21.633 C 347.542 21.736,347.490 21.857,347.490 22.394 L 347.490 23.032 349.982 22.994 L 352.475 22.955 352.475 22.255 C 352.475 21.586,352.455 21.551,352.054 21.481 C 351.224 21.338,350.966 19.871,350.903 14.950 L 350.852 11.016 351.292 10.204 C 351.839 9.193,352.206 9.296,352.506 10.544 C 352.606 10.961,352.749 11.410,352.824 11.542 C 352.899 11.674,353.002 12.053,353.053 12.384 C 353.103 12.716,353.205 13.063,353.278 13.156 C 353.351 13.250,353.366 13.399,353.311 13.488 C 353.256 13.577,353.284 13.695,353.373 13.750 C 353.462 13.805,353.572 14.193,353.618 14.612 C 353.664 15.031,353.779 15.500,353.874 15.655 C 353.969 15.809,354.125 16.283,354.221 16.708 C 354.316 17.132,354.477 17.669,354.578 17.901 C 354.679 18.133,354.807 18.607,354.863 18.954 C 354.918 19.302,355.012 19.649,355.072 19.726 C 355.131 19.803,355.225 20.088,355.281 20.358 C 355.337 20.628,355.472 21.042,355.581 21.277 C 355.690 21.512,355.826 21.981,355.884 22.319 C 355.983 22.902,356.336 23.298,356.336 22.827 C 356.336 22.686,356.458 22.604,356.669 22.604 C 357.138 22.604,357.275 22.383,357.474 21.303 C 357.569 20.783,357.700 20.358,357.764 20.358 C 357.828 20.358,357.880 20.241,357.880 20.099 C 357.880 19.875,358.470 18.896,359.223 17.872 C 359.441 17.575,359.433 17.551,359.004 17.290 C 358.165 16.780,358.118 16.545,358.221 13.338 C 358.272 11.755,358.337 10.270,358.366 10.039 C 358.394 9.807,358.461 8.828,358.514 7.862 C 358.611 6.097,358.661 5.768,359.051 4.352 C 359.359 3.233,359.635 2.778,360.156 2.533 C 360.541 2.352,360.625 2.228,360.661 1.790 L 360.705 1.264 358.044 1.264 C 355.171 1.264,355.212 1.252,355.212 2.032 C 355.212 2.379,355.448 2.527,356.001 2.527 C 356.588 2.527,357.184 4.549,357.199 6.593 C 357.212 8.269,356.992 12.074,356.882 12.074 C 356.654 12.074,356.357 11.438,356.259 10.741 C 356.204 10.355,356.115 9.975,356.061 9.898 C 355.897 9.666,355.378 8.110,355.276 7.545 C 355.223 7.255,355.125 6.982,355.056 6.940 C 354.988 6.898,354.932 6.751,354.932 6.615 C 354.932 5.141,353.076 1.544,352.316 1.544 C 352.210 1.544,352.124 1.481,352.124 1.404 C 352.124 1.234,349.375 1.228,348.965 1.397 M157.236 1.745 C 154.579 4.418,154.487 4.549,154.022 6.318 C 153.331 8.946,153.717 10.847,155.270 12.460 L 156.265 13.494 156.265 16.156 C 156.265 17.620,156.207 18.927,156.135 19.061 C 156.063 19.195,155.935 19.770,155.850 20.339 C 155.697 21.363,155.378 21.885,154.896 21.898 C 154.786 21.901,154.721 22.111,154.721 22.467 L 154.721 23.032 157.143 22.994 L 159.565 22.955 159.538 22.324 C 159.523 21.976,159.448 21.218,159.371 20.639 C 159.073 18.399,159.225 15.514,159.641 15.514 C 159.754 15.514,159.867 15.672,159.894 15.865 C 159.921 16.058,159.996 16.282,160.062 16.362 C 160.128 16.442,160.252 16.945,160.337 17.480 C 160.422 18.014,160.544 18.517,160.607 18.598 C 160.713 18.734,161.011 21.126,161.079 22.394 L 161.109 22.955 163.556 22.994 C 166.108 23.034,166.368 22.978,166.084 22.446 C 166.012 22.311,165.953 22.078,165.953 21.927 C 165.953 21.751,165.827 21.620,165.602 21.564 C 165.388 21.510,165.251 21.376,165.251 21.220 C 165.251 21.079,165.125 20.849,164.970 20.709 C 164.816 20.569,164.689 20.351,164.689 20.224 C 164.689 20.097,164.636 19.933,164.571 19.860 C 164.367 19.630,163.728 17.655,163.572 16.776 C 163.382 15.697,163.360 15.612,163.243 15.495 C 162.764 15.016,163.638 13.198,164.348 13.198 C 164.477 13.198,165.111 12.513,165.111 12.372 C 165.111 12.313,165.269 12.115,165.462 11.934 C 165.655 11.753,165.813 11.549,165.813 11.481 C 165.813 11.413,165.955 11.060,166.128 10.698 C 166.415 10.099,166.444 9.833,166.444 7.792 L 166.444 5.546 165.865 4.352 C 165.403 3.402,165.092 2.981,164.333 2.282 L 163.380 1.404 160.478 1.404 C 157.591 1.404,157.574 1.406,157.236 1.745 M223.749 1.906 C 223.529 2.170,223.271 2.387,223.175 2.387 C 222.798 2.387,221.181 4.677,220.846 5.686 C 220.110 7.900,220.315 10.677,221.294 11.755 C 221.590 12.082,221.833 12.398,221.833 12.457 C 221.834 12.517,222.055 12.716,222.325 12.900 L 222.815 13.234 222.808 16.059 C 222.798 19.855,222.491 21.494,221.726 21.830 C 221.480 21.939,221.411 22.084,221.411 22.497 L 221.411 23.026 223.813 23.026 L 226.215 23.026 226.094 21.587 C 225.948 19.834,225.935 15.646,226.076 15.506 C 226.264 15.318,226.583 15.736,226.677 16.294 C 226.729 16.598,226.828 16.882,226.899 16.926 C 226.969 16.969,227.027 17.171,227.027 17.374 C 227.027 17.875,227.312 19.378,227.473 19.732 C 227.546 19.889,227.648 20.679,227.702 21.487 L 227.799 22.955 230.310 22.994 L 232.820 23.032 232.731 22.590 C 232.683 22.347,232.643 22.060,232.643 21.952 C 232.643 21.844,232.493 21.688,232.311 21.604 C 231.723 21.337,230.777 19.133,230.193 16.674 C 229.689 14.550,229.708 14.210,230.362 13.689 C 231.369 12.886,232.363 11.728,232.589 11.092 C 232.712 10.744,232.885 10.308,232.974 10.122 C 233.184 9.679,233.189 5.916,232.979 5.461 C 232.055 3.459,231.917 3.245,230.954 2.342 L 229.954 1.404 227.052 1.414 L 224.149 1.424 223.749 1.906 M312.142 1.685 C 312.046 1.839,311.885 1.966,311.785 1.966 C 311.145 1.966,309.458 3.984,308.910 5.405 C 308.486 6.506,308.292 9.681,308.625 10.075 C 308.738 10.210,308.919 10.601,309.028 10.945 C 309.159 11.362,309.500 11.852,310.045 12.409 L 310.865 13.247 310.798 16.346 C 310.706 20.648,310.563 21.402,309.818 21.508 C 309.567 21.544,309.504 21.659,309.469 22.148 L 309.426 22.745 311.806 22.745 L 314.186 22.745 314.109 19.235 C 314.040 16.052,314.055 15.725,314.262 15.725 C 314.388 15.725,314.521 15.867,314.558 16.041 C 314.594 16.214,314.684 16.641,314.757 16.988 C 314.830 17.336,315.054 18.341,315.255 19.221 C 315.455 20.101,315.620 21.249,315.620 21.772 L 315.620 22.722 318.147 22.738 L 320.674 22.755 320.674 22.329 C 320.674 22.014,320.609 21.902,320.424 21.902 C 319.964 21.902,319.211 20.757,319.045 19.804 C 318.997 19.530,318.870 19.165,318.763 18.994 C 318.656 18.823,318.568 18.594,318.568 18.485 C 318.568 18.377,318.410 17.804,318.217 17.213 C 318.024 16.621,317.866 15.868,317.866 15.538 C 317.866 15.208,317.795 14.868,317.708 14.781 C 317.540 14.613,317.821 14.289,319.200 13.060 C 321.100 11.367,321.563 7.691,320.237 4.835 C 320.091 4.521,319.972 4.207,319.972 4.137 C 319.972 3.912,318.092 2.221,317.614 2.015 C 317.360 1.906,317.116 1.724,317.073 1.610 C 316.932 1.244,312.374 1.313,312.142 1.685 M204.282 1.685 C 204.282 1.762,204.203 1.830,204.107 1.836 C 203.834 1.852,202.441 3.522,202.242 4.072 C 202.144 4.342,202.016 4.689,201.958 4.844 C 201.900 4.998,201.835 5.188,201.814 5.265 C 201.792 5.342,201.666 5.784,201.533 6.248 C 200.631 9.397,201.634 13.562,203.791 15.622 C 204.486 16.286,204.586 17.377,204.032 18.273 C 203.861 18.550,203.721 18.854,203.721 18.949 C 203.721 19.109,203.497 19.673,203.116 20.473 C 203.030 20.653,202.721 21.032,202.428 21.316 C 201.987 21.744,201.896 21.928,201.895 22.394 L 201.895 22.955 204.317 22.920 C 205.649 22.901,206.818 22.885,206.915 22.885 C 207.185 22.885,207.129 22.033,206.845 21.817 C 206.709 21.714,206.458 21.629,206.286 21.626 C 205.728 21.618,205.405 20.626,205.405 18.920 C 205.405 17.172,205.436 17.129,206.689 17.129 C 207.396 17.129,207.761 17.055,208.131 16.837 C 208.403 16.676,208.733 16.566,208.865 16.591 C 209.493 16.713,209.763 21.519,209.150 21.673 C 208.815 21.757,208.494 22.276,208.494 22.736 C 208.494 22.957,208.590 22.987,209.161 22.946 C 209.528 22.919,210.886 22.895,212.180 22.891 C 214.524 22.885,214.531 22.884,214.529 22.569 C 214.526 22.152,214.389 21.961,214.003 21.841 C 213.454 21.670,213.209 21.026,212.768 18.603 C 212.656 17.985,212.502 17.371,212.426 17.238 C 212.350 17.106,212.220 16.379,212.136 15.624 C 212.052 14.869,211.923 14.138,211.849 14.000 C 211.776 13.863,211.648 13.231,211.566 12.596 C 211.484 11.962,211.359 11.316,211.288 11.162 C 211.217 11.007,211.064 10.218,210.947 9.407 C 210.831 8.596,210.678 7.554,210.608 7.090 C 210.464 6.130,210.537 5.603,210.904 4.945 C 211.255 4.318,211.231 4.212,210.739 4.212 C 210.142 4.212,207.652 2.153,207.652 1.659 C 207.652 1.596,206.894 1.544,205.967 1.544 C 204.937 1.544,204.282 1.599,204.282 1.685 M329.991 2.394 C 328.909 3.512,328.665 3.999,328.038 6.290 C 327.672 7.627,327.802 11.234,328.247 12.080 C 328.310 12.199,328.406 12.563,328.462 12.890 C 328.566 13.510,329.308 14.616,330.313 15.649 C 330.984 16.339,331.072 17.399,330.533 18.273 C 330.361 18.550,330.221 18.854,330.221 18.949 C 330.221 19.109,329.997 19.673,329.616 20.473 C 329.531 20.653,329.221 21.032,328.929 21.316 C 328.487 21.744,328.396 21.928,328.396 22.394 L 328.396 22.955 330.888 22.921 C 332.259 22.903,333.428 22.887,333.485 22.886 C 334.064 22.881,333.365 21.634,332.779 21.626 C 332.600 21.624,332.425 21.514,332.382 21.376 C 332.340 21.241,332.215 20.963,332.106 20.758 C 331.849 20.279,331.825 17.547,332.074 17.297 C 332.172 17.200,332.640 17.129,333.190 17.129 C 333.896 17.129,334.262 17.055,334.631 16.837 C 335.602 16.264,335.864 16.812,336.036 19.772 C 336.122 21.251,336.067 21.622,335.762 21.622 C 335.483 21.622,334.977 22.338,335.024 22.666 C 335.046 22.825,335.144 22.949,335.240 22.941 C 335.337 22.934,336.680 22.918,338.224 22.906 L 341.032 22.885 341.030 22.569 C 341.027 22.163,340.890 21.962,340.541 21.852 C 340.386 21.803,340.140 21.557,339.994 21.306 C 339.715 20.827,339.643 20.559,339.209 18.392 C 339.062 17.659,338.899 16.901,338.847 16.708 C 338.795 16.515,338.672 15.780,338.573 15.076 C 338.474 14.371,338.330 13.676,338.253 13.531 C 338.176 13.386,338.067 12.826,338.011 12.285 C 337.954 11.744,337.872 11.240,337.827 11.164 C 337.731 11.002,337.732 11.007,337.464 9.196 C 337.350 8.424,337.193 7.467,337.115 7.070 C 336.967 6.317,337.049 5.335,337.260 5.335 C 337.327 5.335,337.382 5.213,337.382 5.063 C 337.382 4.913,337.445 4.751,337.522 4.703 C 337.831 4.513,337.658 4.212,337.239 4.212 C 336.668 4.212,336.083 3.787,334.995 2.583 L 334.082 1.574 332.448 1.559 L 330.814 1.544 329.991 2.394 M112.415 3.330 C 113.581 3.901,113.909 4.442,114.395 6.599 C 114.623 7.612,114.332 15.861,114.014 17.410 C 113.737 18.754,113.389 19.882,113.141 20.239 C 112.998 20.444,112.882 20.652,112.882 20.702 C 112.882 21.145,111.182 22.078,110.977 21.747 C 110.935 21.678,110.780 21.622,110.634 21.622 C 110.034 21.622,109.281 20.189,109.084 18.673 C 108.702 15.741,109.232 6.264,109.799 5.896 C 109.859 5.858,109.952 5.589,110.006 5.299 C 110.061 5.008,110.225 4.620,110.370 4.434 C 110.516 4.249,110.635 4.050,110.635 3.993 C 110.635 3.811,111.345 2.948,111.494 2.948 C 111.572 2.948,111.987 3.120,112.415 3.330 M205.714 3.335 C 206.629 4.313,206.679 4.834,206.118 7.582 C 205.953 8.392,205.726 9.719,205.614 10.530 C 205.503 11.341,205.348 12.131,205.272 12.285 C 205.195 12.439,205.115 12.819,205.093 13.127 C 205.006 14.384,203.458 13.519,202.822 11.859 C 202.281 10.446,202.363 6.225,202.954 5.093 C 203.066 4.879,203.158 4.591,203.158 4.453 C 203.159 4.316,203.254 4.167,203.370 4.122 C 203.485 4.078,203.580 3.959,203.580 3.858 C 203.580 3.083,205.124 2.704,205.714 3.335 M268.936 3.411 C 270.294 4.136,270.874 5.729,270.839 8.635 C 270.806 11.458,270.539 17.046,270.431 17.188 C 270.367 17.271,270.236 17.797,270.140 18.357 C 270.043 18.916,269.915 19.405,269.855 19.442 C 269.794 19.479,269.708 19.685,269.662 19.899 C 269.554 20.408,268.497 21.622,268.162 21.622 C 268.018 21.622,267.865 21.678,267.823 21.746 C 267.566 22.162,266.341 21.303,265.905 20.401 C 265.184 18.913,265.077 9.095,265.766 7.750 C 265.833 7.619,265.960 7.038,266.048 6.458 C 266.137 5.879,266.270 5.384,266.344 5.359 C 266.419 5.333,266.479 5.212,266.479 5.090 C 266.479 4.604,267.619 2.941,267.943 2.955 C 268.026 2.959,268.473 3.164,268.936 3.411 M332.215 3.335 C 333.170 4.356,333.207 4.916,332.529 8.143 C 332.407 8.722,332.222 9.796,332.116 10.530 C 332.011 11.264,331.858 12.085,331.776 12.355 C 331.695 12.625,331.612 13.036,331.591 13.268 C 331.509 14.214,329.519 13.209,329.519 12.221 C 329.519 12.072,329.465 11.917,329.399 11.876 C 328.556 11.355,328.945 5.329,329.894 4.201 C 329.997 4.079,330.081 3.914,330.081 3.835 C 330.081 3.096,331.648 2.729,332.215 3.335 M129.280 3.398 C 129.468 3.585,129.509 6.019,129.357 7.968 C 129.253 9.304,128.956 9.486,128.107 8.734 C 127.261 7.984,127.051 5.354,127.758 4.362 C 127.916 4.140,128.045 3.912,128.045 3.856 C 128.045 3.438,128.976 3.093,129.280 3.398 M159.288 3.377 C 159.419 3.588,159.021 4.359,158.557 4.794 C 157.473 5.810,155.545 6.330,155.446 5.633 C 155.298 4.588,158.775 2.546,159.288 3.377 M225.986 3.422 C 226.175 3.913,225.031 5.099,223.855 5.632 C 221.981 6.482,221.456 5.873,222.866 4.486 C 224.003 3.369,225.739 2.777,225.986 3.422 M313.661 3.373 C 314.490 3.817,311.885 6.037,310.535 6.037 C 310.121 6.037,310.110 6.021,310.191 5.522 C 310.391 4.286,312.698 2.858,313.661 3.373 M87.890 3.849 C 87.890 4.146,87.562 4.510,86.830 5.021 C 86.095 5.535,84.581 6.275,84.067 6.372 C 83.810 6.420,83.457 6.559,83.285 6.679 L 82.971 6.899 83.255 7.259 C 83.411 7.457,83.538 7.734,83.538 7.873 C 83.538 8.013,83.601 8.166,83.678 8.213 C 83.910 8.356,83.861 12.286,83.625 12.481 C 82.253 13.620,81.014 8.127,82.139 5.897 C 82.487 5.207,83.497 4.072,83.763 4.072 C 83.854 4.072,83.964 3.982,84.006 3.872 C 84.109 3.603,84.456 3.552,86.311 3.529 L 87.890 3.510 87.890 3.849 M284.609 3.861 C 284.618 4.054,284.626 4.307,284.626 4.423 C 284.626 4.538,284.618 5.676,284.609 6.950 L 284.591 9.266 284.135 9.262 C 282.675 9.248,281.918 5.677,283.099 4.372 C 283.225 4.233,283.327 4.049,283.327 3.962 C 283.327 3.441,284.583 3.342,284.609 3.861 M349.995 4.142 C 350.022 4.451,349.999 5.730,349.945 6.985 L 349.847 9.266 349.463 9.266 C 349.251 9.266,348.964 9.140,348.824 8.986 C 348.684 8.831,348.498 8.705,348.410 8.705 C 348.014 8.705,347.783 6.556,348.037 5.241 C 348.329 3.732,349.885 2.858,349.995 4.142 M45.722 3.868 C 45.904 4.341,43.603 5.788,42.345 5.992 C 42.063 6.038,41.799 6.130,41.757 6.197 C 41.716 6.263,41.555 6.318,41.400 6.318 L 41.117 6.318 41.398 6.676 C 41.553 6.872,41.720 7.219,41.770 7.446 C 41.820 7.673,41.919 7.895,41.990 7.939 C 42.242 8.095,42.149 12.231,41.888 12.520 C 40.609 13.933,38.482 8.592,39.628 6.843 C 39.763 6.637,39.874 6.376,39.874 6.263 C 39.874 6.150,40.154 5.784,40.497 5.451 C 41.400 4.571,41.587 4.431,42.126 4.227 C 42.393 4.126,42.738 3.988,42.892 3.921 C 43.590 3.618,45.612 3.580,45.722 3.868 M161.597 4.458 C 162.101 4.979,162.450 5.489,162.582 5.897 C 162.693 6.244,162.865 6.687,162.964 6.880 C 163.188 7.318,163.206 9.733,162.988 10.139 C 162.526 11.003,161.248 11.934,160.525 11.934 C 159.445 11.934,159.251 10.786,159.638 6.658 C 159.936 3.482,160.278 3.097,161.597 4.458 M227.592 3.890 C 228.488 4.508,229.312 5.704,229.488 6.640 C 229.542 6.928,229.642 7.198,229.711 7.240 C 229.779 7.283,229.835 7.920,229.835 8.657 L 229.835 9.997 228.867 10.966 C 227.778 12.055,226.844 12.304,226.261 11.660 C 226.011 11.384,225.993 7.721,226.237 6.739 C 226.285 6.546,226.386 5.897,226.461 5.298 C 226.667 3.665,226.881 3.399,227.592 3.890 M90.505 4.809 C 91.911 6.271,93.085 8.465,93.085 9.630 C 93.085 9.884,93.140 10.126,93.207 10.167 C 93.919 10.607,93.315 17.628,92.420 19.324 C 91.586 20.903,88.613 22.255,87.679 21.480 C 87.434 21.277,87.375 19.169,87.610 19.024 C 87.687 18.976,87.749 18.388,87.748 17.717 C 87.744 15.221,88.070 7.787,88.188 7.659 C 88.256 7.585,88.313 7.238,88.315 6.887 C 88.329 4.299,89.210 3.463,90.505 4.809 M315.797 4.422 C 316.010 4.610,316.384 5.129,316.627 5.576 C 316.871 6.023,317.116 6.420,317.173 6.458 C 317.352 6.579,317.585 8.149,317.585 9.232 L 317.585 10.270 316.792 11.102 C 315.963 11.971,314.762 12.284,314.244 11.766 C 313.946 11.468,314.073 6.834,314.441 4.598 C 314.548 3.942,315.161 3.862,315.797 4.422 M155.720 6.888 C 156.263 7.919,156.314 8.143,156.373 9.721 C 156.458 11.964,155.862 12.218,155.141 10.246 C 154.507 8.513,155.018 5.553,155.720 6.888 M222.679 7.555 C 222.797 7.948,222.939 8.314,222.995 8.370 C 223.216 8.591,223.107 11.188,222.868 11.387 C 222.566 11.638,221.759 10.715,221.638 9.979 C 221.204 7.360,222.036 5.423,222.679 7.555 M310.569 7.196 C 310.765 7.627,310.841 8.111,310.843 8.942 C 310.845 9.575,310.909 10.131,310.986 10.179 C 311.203 10.313,311.152 11.176,310.916 11.372 C 310.335 11.855,309.704 10.473,309.618 8.527 C 309.530 6.532,309.981 5.900,310.569 7.196 M207.476 8.600 C 207.552 8.696,207.659 9.121,207.712 9.544 C 207.766 9.966,207.868 10.382,207.938 10.467 C 208.225 10.812,208.279 12.669,208.002 12.615 C 207.859 12.588,207.675 12.353,207.584 12.083 C 207.405 11.551,207.090 11.339,207.090 11.751 C 207.090 12.067,206.712 12.636,206.501 12.636 C 206.321 12.636,206.455 11.000,206.655 10.755 C 206.725 10.670,206.827 10.158,206.883 9.617 C 207.011 8.372,207.132 8.165,207.476 8.600 M333.977 8.600 C 334.054 8.696,334.162 9.091,334.218 9.477 C 334.274 9.863,334.372 10.244,334.438 10.323 C 334.717 10.664,334.773 12.668,334.501 12.615 C 334.360 12.588,334.176 12.353,334.085 12.083 C 333.915 11.579,333.591 11.331,333.591 11.705 C 333.591 12.067,333.276 12.636,333.077 12.636 C 332.825 12.636,332.832 11.833,333.091 11.061 C 333.202 10.731,333.336 10.049,333.390 9.547 C 333.515 8.372,333.638 8.174,333.977 8.600 M97.438 11.794 C 97.438 12.025,97.373 12.215,97.293 12.215 C 97.052 12.215,96.980 11.822,97.180 11.596 C 97.433 11.309,97.438 11.312,97.438 11.794 M170.972 19.139 C 170.605 19.307,170.305 19.514,170.305 19.599 C 170.305 19.684,170.179 19.867,170.025 20.007 C 169.068 20.873,170.255 22.985,171.716 23.015 C 172.259 23.027,173.254 22.194,173.254 21.729 C 173.254 21.602,173.317 21.459,173.394 21.411 C 173.882 21.110,173.539 19.974,172.785 19.392 C 171.928 18.732,171.877 18.725,170.972 19.139 " stroke="none" fill="#000000" fill-rule="evenodd"></path></g></svg>